<svg width="1861" height="987" viewBox="0 0 1861 987" fill="none" xmlns="http://www.w3.org/2000/svg">
<ellipse cx="1495.19" cy="633.154" rx="347.31" ry="340.52" fill="#FFE526"/>
<ellipse cx="111" cy="796" rx="86" ry="84" fill="#FFE526"/>
<ellipse cx="347.755" cy="305.031" rx="302.396" ry="296.046" fill="#FFE526"/>
<path d="M640.257 313.117C640.257 485.472 497.177 625.234 320.628 625.234C144.08 625.234 1 485.472 1 313.117C1 140.762 144.08 1 320.628 1C497.177 1 640.257 140.762 640.257 313.117Z" stroke="#694B3C" stroke-width="2"/>
<ellipse cx="1045.5" cy="235" rx="117.5" ry="115" fill="#FFE526"/>
<ellipse cx="740.761" cy="821.677" rx="101.323" ry="99.1671" transform="rotate(-117.517 740.761 821.677)" fill="#FFE526"/>
<path d="M1859.28 603.954C1859.28 796.655 1699.48 952.908 1502.3 952.908C1305.12 952.908 1145.32 796.655 1145.32 603.954C1145.32 411.253 1305.12 255 1502.3 255C1699.48 255 1859.28 411.253 1859.28 603.954Z" stroke="#694B3C" stroke-width="2"/>
<path d="M204 759.5C204 797.864 172.232 829 133 829C93.7678 829 62 797.864 62 759.5C62 721.136 93.7678 690 133 690C172.232 690 204 721.136 204 759.5Z" stroke="#694B3C" stroke-width="2"/>
<path d="M1814.81 613.837C1814.81 811.996 1650.43 972.675 1447.6 972.675C1244.78 972.675 1080.39 811.996 1080.39 613.837C1080.39 415.678 1244.78 255 1447.6 255C1650.43 255 1814.81 415.678 1814.81 613.837Z" stroke="#694B3C" stroke-width="2"/>
<path d="M226 778C226 826.58 185.727 866 136 866C86.2733 866 46 826.58 46 778C46 729.42 86.2733 690 136 690C185.727 690 226 729.42 226 778Z" stroke="#694B3C" stroke-width="2"/>
<path d="M1100 274.5C1100 336.608 1048.31 387 984.5 387C920.686 387 869 336.608 869 274.5C869 212.392 920.686 162 984.5 162C1048.31 162 1100 212.392 1100 274.5Z" stroke="#694B3C" stroke-width="2"/>
<path d="M749.32 764.382C796.748 739.675 855.797 759.096 881.187 807.834C906.577 856.573 888.652 916.093 841.224 940.8C793.797 965.507 734.748 946.086 709.358 897.348C683.968 848.61 701.892 789.089 749.32 764.382Z" stroke="#694B3C" stroke-width="2"/>
</svg>
